<?xml version="1.0" encoding="UTF-8" standalone="no"?>
<!-- Created with Inkscape (http://www.inkscape.org/) -->

<svg
   width="210mm"
   height="297mm"
   viewBox="0 0 210 297"
   version="1.1"
   id="svg5"
   xml:space="preserve"
   inkscape:version="1.2.2 (b0a8486541, 2022-12-01)"
   sodipodi:docname="logo.svg"
   xmlns:inkscape="http://www.inkscape.org/namespaces/inkscape"
   xmlns:sodipodi="http://sodipodi.sourceforge.net/DTD/sodipodi-0.dtd"
   xmlns="http://www.w3.org/2000/svg"
   xmlns:svg="http://www.w3.org/2000/svg"><sodipodi:namedview
     id="namedview7"
     pagecolor="#ffffff"
     bordercolor="#000000"
     borderopacity="0.25"
     inkscape:showpageshadow="2"
     inkscape:pageopacity="0.0"
     inkscape:pagecheckerboard="0"
     inkscape:deskcolor="#d1d1d1"
     inkscape:document-units="mm"
     showgrid="false"
     showguides="true"
     inkscape:zoom="2"
     inkscape:cx="315.25"
     inkscape:cy="404"
     inkscape:window-width="1920"
     inkscape:window-height="1011"
     inkscape:window-x="0"
     inkscape:window-y="0"
     inkscape:window-maximized="1"
     inkscape:current-layer="layer1"><sodipodi:guide
       position="75.677365,211.3134"
       orientation="1,0"
       id="guide517"
       inkscape:locked="false" /></sodipodi:namedview><defs
     id="defs2"><rect
       x="235.03204"
       y="501.97475"
       width="316.11518"
       height="105.05399"
       id="rect456" /></defs><g
     inkscape:label="Layer 1"
     inkscape:groupmode="layer"
     id="layer1"><path
       style="fill:#ffffff;stroke:#000000;stroke-width:1.32475;stroke-linecap:round;stroke-linejoin:round;stroke-dasharray:none;stroke-opacity:1"
       id="path1318"
       sodipodi:type="arc"
       sodipodi:cx="-98.595657"
       sodipodi:cy="-111.187"
       sodipodi:rx="24.256636"
       sodipodi:ry="24.472969"
       sodipodi:start="0"
       sodipodi:end="6.2765626"
       sodipodi:arc-type="arc"
       d="m -74.339022,-111.187 a 24.256636,24.472969 0 0 1 -24.216474,24.472939 24.256636,24.472969 0 0 1 -24.296664,-24.391899 24.256636,24.472969 0 0 1 24.13602,-24.5537 24.256636,24.472969 0 0 1 24.376586,24.31059"
       transform="rotate(-179.49766)"
       sodipodi:open="true"
       inkscape:export-filename="../Logo/logo.png"
       inkscape:export-xdpi="200"
       inkscape:export-ydpi="200" /><path
       style="fill:#000000;stroke-width:0.264583"
       d="m 98.843191,131.31447 c -0.13925,-0.26351 -0.3407,-3.69379 -0.44765,-7.62285 -0.25169,-9.24553 -0.48537,-10.91038 -0.76154,-5.42553 -0.19879,3.94818 -0.36789,4.63384 -1.087,4.40767 -0.35731,-0.11238 -0.57662,-2.27662 -0.82185,-8.11027 -0.14497,-3.44859 -0.26443,-4.5821 -0.40432,-3.83646 -0.1092,0.58208 -0.2054,1.79472 -0.21379,2.69475 -0.0174,1.8647 -0.35923,2.99379 -0.90644,2.99379 -0.46064,0 -0.69692,-0.57003 -0.6944,-1.67529 10e-4,-0.46104 -0.14434,-2.38606 -0.32307,-4.27784 l -0.32498,-3.43958 -0.27224,2.77605 c -0.2258,2.30248 -0.3511,2.79097 -0.7345,2.86352 -0.69668,0.13184 -0.90146,-0.73481 -1.14498,-4.84582 l -0.21942,-3.70417 -0.21987,2.51355 c -0.36601,4.18406 -0.52976,4.89479 -1.12775,4.89479 -0.55782,0 -0.5903,-0.1277 -1.07698,-4.23334 l -0.21954,-1.85208 -0.27815,2.38125 c -0.253341,2.1689 -0.331221,2.38879 -0.873451,2.4658 -0.32742,0.0465 -0.60681,0.0465 -0.62086,0 -0.014,-0.0465 -0.16837,-1.21564 -0.34292,-2.59809 l -0.31735,-2.51354 -0.33231,2.50643 c -0.18276,1.37853 -0.46414,2.58791 -0.62528,2.6875 -0.60634,0.37474 -0.9956,-0.13472 -1.30907,-1.7133 l -0.32339,-1.62855 -0.29295,1.19063 c -0.24591,0.99945 -0.39502,1.19062 -0.92865,1.19062 -0.5272,0 -0.7023,-0.21448 -1.02598,-1.25677 l -0.39029,-1.25677 h -2.20251 c -2.17295,0 -2.2025,-0.009 -2.2025,-0.66146 0,-0.63794 0.0614,-0.66146 1.72546,-0.66146 1.59201,0 1.7492,-0.0521 2.03236,-0.67357 0.43521,-0.95518 1.27527,-0.76104 1.65886,0.38336 l 0.30181,0.90041 0.32958,-1.47272 c 0.3589,-1.60371 0.97462,-2.1395 1.55172,-1.35027 0.18574,0.25402 0.3514,0.70698 0.36813,1.00659 0.0515,0.922 0.44295,-1.44498 0.64211,-3.88266 0.10383,-1.270913 0.33929,-2.516573 0.52325,-2.768143 0.56675,-0.77509 1.11468,2.9e-4 1.30709,1.84972 0.33715,3.240563 0.49292,3.407933 0.79139,0.850333 0.23267,-1.993773 0.35813,-2.394133 0.775071,-2.473433 0.68237,-0.12976 0.94339,0.38481 0.985,1.94184 0.0869,3.252533 0.39373,2.736863 0.69276,-1.1644 0.17178,-2.24115 0.42924,-4.19172 0.57212,-4.33461 0.44187,-0.44186 1.08788,0.0194 1.11244,0.79435 0.0128,0.40475 0.16832,2.46232 0.34555,4.57237 l 0.32223,3.836463 0.20435,-2.38125 c 0.25665,-2.990723 0.34822,-3.307293 0.95663,-3.307293 0.64644,0 0.71903,0.32078 0.95794,4.233333 0.18659,3.05561 0.21759,3.19655 0.40742,1.85208 0.11301,-0.80036 0.28048,-2.6243 0.37216,-4.053203 0.12365,-1.92714 0.26704,-2.6365 0.55529,-2.74711 0.21373,-0.082 0.50668,-0.031 0.651,0.11328 0.14432,0.14432 0.3829,2.62922 0.53018,5.521993 0.14728,2.89278 0.30588,5.29768 0.35244,5.34424 0.0466,0.0466 0.15999,-1.91651 0.25208,-4.36238 0.19732,-5.240683 0.38722,-6.524773 0.98186,-6.639293 0.23611,-0.0455 0.49717,0.0942 0.58013,0.3104 0.083,0.21619 0.24034,3.406953 0.34974,7.090593 0.23647,7.96282 0.48734,7.27108 0.7595,-2.09426 0.15303,-5.265663 0.27334,-6.740983 0.569789,-6.987023 0.24634,-0.20444 0.46546,-0.22224 0.63603,-0.0517 0.14312,0.14312 0.39989,3.55132 0.57061,7.573773 0.17071,4.02246 0.35794,7.266 0.41606,7.20789 0.0581,-0.0581 0.21737,-2.40142 0.35389,-5.20734 0.1573,-3.23282 0.35705,-5.168913 0.54529,-5.285253 0.77846,-0.48111 0.95582,0.10269 1.12056,3.688343 0.0915,1.99085 0.25899,4.27458 0.37227,5.07494 0.17219,1.21651 0.24091,0.7078 0.41897,-3.10134 0.1601,-3.42476 0.30692,-4.63449 0.59111,-4.87035 0.76861,-0.637883 1.01072,0.22431 1.29471,4.61058 0.27736,4.28396 0.27771,4.28558 0.46511,2.17049 0.45232,-5.10483 0.54236,-5.55625 1.10822,-5.55625 0.64299,0 0.82889,0.84396 1.10728,5.02708 l 0.19369,2.91042 0.27615,-3.70417 c 0.27592,-3.70108 0.2767,-3.70416 0.9376,-3.70416 0.63234,0 0.67102,0.0932 0.87862,2.11666 0.34747,3.38669 0.51338,3.68532 0.74709,1.34475 0.11505,-1.15217 0.33539,-2.22106 0.48965,-2.37531 0.50022,-0.50022 1.15787,0.21283 1.45969,1.58268 l 0.28643,1.29997 0.33874,-0.99219 c 0.4043,-1.18423 1.20736,-1.34339 1.66876,-0.33073 0.27584,0.6054 0.44509,0.66146 1.99711,0.66146 1.60719,0 1.69131,0.0311 1.61117,0.59531 -0.0782,0.55086 -0.23748,0.60108 -2.13281,0.67255 -1.9862,0.0749 -2.05306,0.0989 -2.20658,0.79375 -0.57301,2.59347 -1.19781,3.29048 -1.94322,2.16783 -0.39309,-0.59202 -0.43691,-0.40551 -0.81288,3.45938 -0.39642,4.07513 -0.39901,4.08515 -1.05885,4.08515 -0.58107,0 -0.68319,-0.1447 -0.84028,-1.19063 -0.0984,-0.65485 -0.2037,-1.78595 -0.23409,-2.51355 -0.0304,-0.7276 -0.2202,0.57851 -0.42178,2.90249 -0.20159,2.32397 -0.4752,4.33408 -0.60803,4.46691 -0.42952,0.42952 -0.99997,-0.0285 -1.16104,-0.93212 -0.0864,-0.48456 -0.24929,-2.13118 -0.36204,-3.65915 l -0.20501,-2.77813 -0.16595,1.98438 c -0.0913,1.09141 -0.18151,2.82483 -0.20053,3.85204 -0.0404,2.1799 -0.51809,3.16818 -1.20492,2.49263 -0.30708,-0.30203 -0.45293,-1.27168 -0.58562,-3.89332 -0.0972,-1.92011 -0.26021,-3.43951 -0.36229,-3.37642 -0.10208,0.0631 -0.27021,1.85509 -0.37362,3.98222 -0.20758,4.26974 -0.28953,4.67942 -0.91203,4.55954 -0.52018,-0.10018 -0.68337,-1.1236 -0.98247,-6.16148 l -0.21991,-3.70417 -0.19088,3.57188 c -0.10498,1.96453 -0.27185,5.15805 -0.37082,7.0967 -0.13919,2.72641 -0.2675,3.55843 -0.56648,3.67316 -0.21259,0.0816 -0.48834,0.0432 -0.61278,-0.0852 -0.12444,-0.12846 -0.31187,-2.82656 -0.41652,-5.99577 -0.10465,-3.16921 -0.27898,-5.81703 -0.3874,-5.88404 -0.10842,-0.067 -0.27243,3.18083 -0.36446,7.21741 -0.092,4.03659 -0.25438,7.62718 -0.360759,7.97909 -0.24619,0.81441 -0.74582,0.98609 -1.07222,0.36843 z"
       id="path400"
       sodipodi:nodetypes="sssssssscscssscssscsscscssscssscssssscssssssssssssscsssssssssssssssssssssssssssscsssssscssssssssssssssscsssssssscssssssssss" /><text
       xml:space="preserve"
       transform="matrix(0.26458333,0,0,0.26458333,-15.349273,-16.996519)"
       id="text454"
       style="font-weight:bold;font-size:21.3333px;font-family:sans-serif;-inkscape-font-specification:'sans-serif Bold';text-align:center;white-space:pre;shape-inside:url(#rect456);display:inline;fill:#000000;stroke-width:3.77953;stroke-linecap:round;stroke-linejoin:round;stroke-dasharray:4.15493, 4.15493"><tspan
         x="363.19023"
         y="521.38525"
         id="tspan307">RSBR 
</tspan></text><text
       xml:space="preserve"
       style="font-weight:bold;font-size:3.52778px;font-family:sans-serif;-inkscape-font-specification:'sans-serif Bold';text-align:center;text-anchor:middle;fill:#000000;stroke-width:1;stroke-linecap:round;stroke-linejoin:round;stroke-dasharray:1.09933, 1.09933"
       x="87.806763"
       y="123.78252"
       id="text515"><tspan
         sodipodi:role="line"
         id="tspan513"
         style="font-style:italic;font-variant:normal;font-weight:bold;font-stretch:normal;font-size:3.52778px;font-family:sans-serif;-inkscape-font-specification:'sans-serif Bold Italic';stroke-width:1"
         x="87.806763"
         y="123.78252">15 years</tspan></text></g></svg>
