<?xml version="1.0" encoding="UTF-8" standalone="no"?>
<!-- Created with Inkscape (http://www.inkscape.org/) -->

<svg
   width="210mm"
   height="297mm"
   viewBox="0 0 210 297"
   version="1.1"
   id="svg5"
   xml:space="preserve"
   inkscape:version="1.2.2 (b0a8486541, 2022-12-01)"
   sodipodi:docname="logo_SSPARQ.svg.2025_06_13_16_08_21.0.svg"
   xmlns:inkscape="http://www.inkscape.org/namespaces/inkscape"
   xmlns:sodipodi="http://sodipodi.sourceforge.net/DTD/sodipodi-0.dtd"
   xmlns="http://www.w3.org/2000/svg"
   xmlns:svg="http://www.w3.org/2000/svg"><sodipodi:namedview
     id="namedview7"
     pagecolor="#ffffff"
     bordercolor="#000000"
     borderopacity="0.25"
     inkscape:showpageshadow="2"
     inkscape:pageopacity="0.0"
     inkscape:pagecheckerboard="0"
     inkscape:deskcolor="#d1d1d1"
     inkscape:document-units="mm"
     showgrid="false"
     showguides="true"
     inkscape:zoom="1"
     inkscape:cx="246.5"
     inkscape:cy="249.5"
     inkscape:window-width="1920"
     inkscape:window-height="1152"
     inkscape:window-x="1920"
     inkscape:window-y="0"
     inkscape:window-maximized="1"
     inkscape:current-layer="layer1"><sodipodi:guide
       position="75.677365,211.3134"
       orientation="1,0"
       id="guide517"
       inkscape:locked="false" /></sodipodi:namedview><defs
     id="defs2"><rect
       x="54.05957"
       y="265.23004"
       width="633.32007"
       height="152.06824"
       id="rect1017" /><rect
       x="235.03204"
       y="501.97475"
       width="316.11518"
       height="105.05399"
       id="rect456" /></defs><g
     inkscape:label="Layer 1"
     inkscape:groupmode="layer"
     id="layer1"><rect
       style="fill:none;stroke:none;stroke-width:0.492634;-inkscape-stroke:none;paint-order:markers fill stroke;stop-color:#000000"
       id="rect901"
       width="197.9263"
       height="62.63942"
       x="15.432973"
       y="7.6541929"
       inkscape:export-filename="logo.png"
       inkscape:export-xdpi="300"
       inkscape:export-ydpi="300" /><path
       style="fill:#000000;stroke-width:0.264583"
       d="m 183.20752,68.097613 c -0.58777,-0.28467 -1.20785,-1.08986 -2.22908,-2.89453 -1.72385,-3.04632 -3.86798,-4.231495 -3.88408,-4.14372 -0.31105,-0.32375 -0.75326,-0.485532 -0.8751,-0.569444 0,0 -0.0864,-0.06285 -0.54123,-0.482734 -0.0933,-0.08611 -0.1897,-0.207973 -0.21793,-0.35707 -0.0142,-0.07525 -0.0227,-0.160206 0.0274,-0.256552 0.8223,-0.50425 1.72791,-0.91682 2.01247,-0.91682 0.65401,0 2.65831,1.51821 3.5428,2.68358 0.37081,0.48856 1.03519,1.52257 1.4764,2.29781 l 0.8022,1.40951 0.30188,-1.6741 c 0.80168,-4.44574 1.92294,-11.4009 2.53054,-15.69701 0.82771,-5.85232 2.23819,-13.37793 2.59104,-13.82448 0.14373,-0.1819 0.59935,-0.33073 1.01249,-0.33073 0.64598,0 0.78709,0.13892 1.00782,0.99219 0.47598,1.84001 0.98548,6.27851 1.79295,15.61926 0.179,2.07067 0.61661,2.88815 0.61661,1.15186 0,-0.96561 1.43213,-10.1403 1.75063,-11.21515 0.20928,-0.70624 1.00114,-1.03396 1.54226,-0.63828 0.46086,0.33698 1.83461,6.52998 3.06152,13.80158 0.29464,1.74625 0.60012,3.38123 0.67885,3.63329 0.13105,0.41956 0.51638,0.44419 4.55981,0.29153 4.88263,-0.18434 5.20195,-0.0944 5.02865,1.41699 -0.0849,0.74042 -0.0955,0.74426 -2.46651,0.89757 -1.30969,0.0847 -3.51234,0.14421 -4.89479,0.13229 -2.1533,-0.0186 -2.63178,-0.10601 -3.3385,-0.61012 -1.11129,-0.7927 -1.31172,-1.37298 -2.17282,-6.29072 -0.8353,-4.77044 -0.81688,-4.78244 -1.62448,1.05834 -1.29676,9.37862 -1.3657,9.65729 -2.3892,9.65729 -0.25541,0 -0.59465,-0.15697 -0.75388,-0.34883 -0.37889,-0.45654 -0.87436,-3.88649 -1.92654,-13.33658 -0.47351,-4.25275 -0.90534,-7.68787 -0.95962,-7.63358 -0.0543,0.0543 -0.56569,3.29569 -1.13645,7.20312 -0.57076,3.90742 -1.51548,9.69564 -2.09938,12.86269 -0.5839,3.16705 -1.06163,5.812 -1.06163,5.87767 0,0.0657 -0.21394,0.23388 -0.47541,0.373824 -0.33011,0.17667 -0.72426,0.13391 -1.28969,-0.139944 z M 29.926797,49.033133 c -1.83356,-0.30822 -4.710374,-1.24014 -6.294831,-2.03914 -1.921553,-0.969 -5.082252,-3.18755 -5.082252,-3.56732 0,-0.129 1.049674,-1.479754 2.332617,-3.00168 l 2.332617,-2.76713 1.040821,0.87898 c 2.571827,2.171925 5.676581,3.27121 9.238977,3.27121 2.037485,0 2.61829,-0.10202 3.727402,-0.65472 1.544307,-0.76955 2.229649,-1.78447 2.229649,-3.30185 0,-2.63205 -1.312971,-3.51834 -7.653916,-5.16662 -5.166679,-1.34304 -7.418407,-2.334 -9.282346,-4.08507 -3.023674,-2.84058 -3.693083,-7.68788 -1.640567,-11.87966 1.36865,-2.79515 4.96463,-5.34783 8.810582,-6.25438 2.222164,-0.5238 7.061841,-0.52833 9.115346,-0.009 2.150927,0.54445 5.231302,2.128147 6.666243,3.42729 l 1.187092,1.07475 -2.052383,2.64262 c -1.128815,1.453446 -2.077183,2.67491 -2.107496,2.71436 -0.03031,0.0394 -0.757052,-0.39629 -1.61498,-0.96831 -5.236646,-3.49156 -12.200165,-2.85928 -12.957283,1.1765 -0.262293,1.39814 0.545409,2.75109 2.158462,3.61557 0.739407,0.39627 3.150223,1.2016 5.357366,1.78962 2.207144,0.58803 4.607476,1.30346 5.334066,1.58986 2.802208,1.10452 4.811927,2.80759 6.022025,5.10315 0.676823,1.28393 0.72758,1.6021 0.72758,4.56078 0,3.05034 -0.03503,3.25172 -0.855564,4.91846 -2.165173,4.39809 -7.520929,7.16527 -13.696518,7.07663 -1.309688,-0.0188 -2.678907,-0.0843 -3.042709,-0.14541 z m 10.748384,6.11706 c -3.664986,-0.82038 -6.898896,-2.36811 -9.356245,-4.47785 l -1.121405,-0.96276 2.444321,-2.83932 2.444319,-2.83932 1.307256,1.02635 c 2.943241,2.31078 5.689729,3.20539 9.384987,3.05697 1.949757,-0.0783 2.766142,-0.22869 3.468566,-0.63893 3.051122,-1.78195 2.697697,-5.49355 -0.66706,-7.00534 -0.582083,-0.26153 -2.308489,-0.78684 -3.836458,-1.16736 -6.239562,-1.55387 -8.560254,-2.62072 -10.679067,-4.90929 -1.85457,-2.00316 -2.369976,-3.59852 -2.24482,-6.94853 0.07959,-2.13038 0.205142,-2.6822 0.957871,-4.20999 1.524574,-3.09438 4.786016,-5.46953 8.814353,-6.41907 2.206886,-0.5202 6.812938,-0.52446 8.850762,-0.008 2.088723,0.52916 5.535265,2.23844 6.934488,3.4391 l 1.124211,0.96467 -2.015222,2.62906 c -1.108372,1.44599 -2.119289,2.69338 -2.246477,2.77198 -0.12719,0.0786 -0.678735,-0.21492 -1.225655,-0.65229 -1.528903,-1.22266 -3.742973,-2.11503 -6.060972,-2.44284 -2.654578,-0.3754 -4.736952,0.12788 -6.078058,1.46898 -1.062678,1.06268 -1.321388,2.00564 -0.918864,3.34914 0.531723,1.77473 1.819757,2.37882 9.812594,4.60206 4.816689,1.33978 7.580854,3.24625 8.954074,6.17571 0.630541,1.34512 0.705157,1.81371 0.705157,4.42844 0,2.84359 -0.02722,2.97921 -0.988145,4.92351 -1.534533,3.10491 -3.684394,4.82438 -7.743105,6.19294 -2.684693,0.90526 -7.187977,1.12643 -10.021406,0.49218 z m 141.893659,-0.76183 c -5.76535,-2.34871 -10.49769,-7.9663 -11.80791,-14.01674 -0.54461,-2.51497 -0.53675,-6.95222 0.0164,-9.23132 1.67924,-6.91933 7.1349,-12.4436 14.19534,-14.37385 2.43655,-0.66612 8.45572,-0.65382 10.84791,0.0222 13.02821,3.68158 18.7873,18.09327 11.86778,29.69824 -1.09162,1.8308 -3.85121,4.6871 -5.78958,5.99248 l -1.44749,0.97479 -0.19794,-0.76389 c -0.10887,-0.42014 -0.36736,-2.21844 -0.57442,-3.99623 l -0.37647,-3.23235 1.17796,-1.75641 c 3.63092,-5.41391 3.05024,-12.47893 -1.38437,-16.84325 -4.80858,-4.73236 -13.08961,-4.57682 -17.58194,0.33024 -5.19096,5.67019 -4.26486,14.81432 1.94919,19.24601 1.37859,0.98318 1.48396,1.13349 1.48386,2.11667 -1.3e-4,1.17324 -0.62626,6.16471 -0.79409,6.33037 -0.0586,0.0578 -0.77143,-0.16582 -1.58419,-0.49693 z m -89.322077,-0.1449 c 0.106614,-0.37553 6.302653,-16.17177 11.960897,-30.49323 l 2.58721,-6.54843 h 4.39241 4.39241 l 6.99289,17.79323 c 3.84609,9.78627 7.15125,18.18018 7.34481,18.65312 l 0.35192,0.8599 h -4.18445 -4.18445 l -1.4415,-3.96763 -1.4415,-3.96763 -7.84822,-10e-4 -7.84822,-10e-4 -0.67495,1.78594 c -0.37122,0.98226 -1.02165,2.73843 -1.4454,3.9026 l -0.77046,2.11667 -4.148044,0.13229 c -3.602156,0.11488 -4.133199,0.0801 -4.035353,-0.26458 z m 24.175277,-14.61823 c -0.0761,-0.1819 -1.23159,-3.12869 -2.56767,-6.54843 -1.33608,-3.41974 -2.51425,-6.37119 -2.61815,-6.55878 -0.14245,-0.25719 -3.50735,8.13406 -5.25601,13.10721 -0.0905,0.25752 1.06774,0.33073 5.232,0.33073 4.17607,0 5.31793,-0.0725 5.20983,-0.33073 z m -52.041079,-3.93223 v -18.81505 l 9.326562,0.12732 c 10.204646,0.1393 10.917698,0.23089 14.187863,1.8224 3.040824,1.4799 5.621689,4.69379 6.36764,7.92946 0.34344,1.48971 0.34335,4.53541 -1.7e-4,6.02551 -0.973034,4.22074 -4.279937,7.53234 -9.078018,9.09091 -1.340397,0.4354 -2.596523,0.54934 -7.243982,0.65704 l -5.622395,0.13031 v 5.92357 5.92358 h -3.96875 -3.96875 z m 19.129636,-0.85633 c 2.248736,-1.10421 2.963071,-2.29422 2.963071,-4.93619 0,-2.66077 -0.769725,-3.94055 -2.995845,-4.98098 -1.421712,-0.66447 -1.760397,-0.70704 -6.330717,-0.79552 l -4.828645,-0.0935 v 5.86708 5.86708 l 4.828645,-0.0872 c 4.68774,-0.0846 4.873435,-0.10915 6.363491,-0.84082 z m 51.249523,0.8594 v -18.81198 l 9.85573,0.11283 c 9.84359,0.11269 9.85839,0.1137 12.01495,0.82437 2.37441,0.78245 4.78281,2.37603 5.99131,3.96429 0.40821,0.53648 1.12258,1.77843 1.5875,2.75988 0.81101,1.71206 0.8453,1.9192 0.8453,5.10548 0,3.30681 -0.004,3.32963 -0.99639,5.33707 -1.16111,2.34936 -2.87275,4.04351 -5.22667,5.17328 l -1.54167,0.73993 3.96048,6.34039 c 2.17827,3.48722 4.07835,6.54875 4.22241,6.80342 0.24495,0.43302 -0.0272,0.46302 -4.20014,0.46302 h -4.46205 l -3.50256,-6.35 -3.50255,-6.35 h -3.55408 -3.55407 v 6.35 6.35 h -3.96875 -3.96875 z m 19.51913,-1.27275 c 2.32561,-1.0388 3.47864,-3.04651 3.11774,-5.42875 -0.28427,-1.87648 -1.1733,-3.09246 -2.91099,-3.9816 l -1.56294,-0.79971 -5.11272,-0.0586 -5.11272,-0.0586 v 5.57305 5.57306 l 5.09323,-0.0978 c 4.65873,-0.0895 5.21225,-0.15098 6.4884,-0.72101 z"
       id="path865"
       sodipodi:nodetypes="sscssscssscssssssssssssssssssssssssssscssscsscssssscscsccssscsssscccscccssssssssscscsssssssssssccsscscsscsscsssssssscscccsscccccccsscscccsscscccsssssscccccccsssccccccccssssscscssscccccccccccsscccccccc" /><text
       xml:space="preserve"
       transform="scale(0.26458333)"
       id="text1015"
       style="fill:#000000;stroke-width:1.88976;line-height:normal;font-family:sans-serif;-inkscape-font-specification:sans-serif;text-decoration-color:#000000;stop-color:#000000;paint-order:markers fill stroke;-inkscape-stroke:none;font-size:40px;fill-opacity:1;stroke:#000000;stroke-opacity:1;white-space:pre;shape-inside:url(#rect1017)" /><text
       xml:space="preserve"
       style="font-size:4.23333px;line-height:normal;font-family:sans-serif;-inkscape-font-specification:sans-serif;text-decoration-color:#000000;fill:#000000;fill-opacity:1;stroke:none;stroke-width:0.499999;stroke-opacity:1;-inkscape-stroke:none;paint-order:markers fill stroke;stop-color:#000000"
       x="32.757931"
       y="61.098751"
       id="text1023"><tspan
         sodipodi:role="line"
         style="font-size:4.23333px;stroke:none;stroke-width:0.499999;fill:#000000"
         x="32.757931"
         y="61.098751"
         id="tspan1075">Scalable Seismological Pipeline for Assessment, Review, and Quality</tspan></text></g></svg>
