<?xml version="1.0" encoding="UTF-8" standalone="no"?>
<!-- Created with Inkscape (http://www.inkscape.org/) -->

<svg
   width="210mm"
   height="297mm"
   viewBox="0 0 210 297"
   version="1.1"
   id="svg5"
   xml:space="preserve"
   inkscape:version="1.2.2 (b0a8486541, 2022-12-01)"
   sodipodi:docname="logo_SSPARQ_mini.svg"
   xmlns:inkscape="http://www.inkscape.org/namespaces/inkscape"
   xmlns:sodipodi="http://sodipodi.sourceforge.net/DTD/sodipodi-0.dtd"
   xmlns="http://www.w3.org/2000/svg"
   xmlns:svg="http://www.w3.org/2000/svg"><sodipodi:namedview
     id="namedview7"
     pagecolor="#ffffff"
     bordercolor="#000000"
     borderopacity="0.25"
     inkscape:showpageshadow="2"
     inkscape:pageopacity="0.0"
     inkscape:pagecheckerboard="0"
     inkscape:deskcolor="#d1d1d1"
     inkscape:document-units="mm"
     showgrid="false"
     showguides="true"
     inkscape:zoom="1"
     inkscape:cx="299.5"
     inkscape:cy="73.5"
     inkscape:window-width="1920"
     inkscape:window-height="1152"
     inkscape:window-x="1920"
     inkscape:window-y="0"
     inkscape:window-maximized="1"
     inkscape:current-layer="layer1"><sodipodi:guide
       position="75.677365,211.3134"
       orientation="1,0"
       id="guide517"
       inkscape:locked="false" /></sodipodi:namedview><defs
     id="defs2"><rect
       x="54.05957"
       y="265.23004"
       width="633.32007"
       height="152.06824"
       id="rect1017" /><rect
       x="235.03204"
       y="501.97475"
       width="316.11518"
       height="105.05399"
       id="rect456" /></defs><g
     inkscape:label="Layer 1"
     inkscape:groupmode="layer"
     id="layer1"><rect
       style="fill:none;stroke:none;stroke-width:0.492634;-inkscape-stroke:none;paint-order:markers fill stroke;stop-color:#000000"
       id="rect901"
       width="197.9263"
       height="62.63942"
       x="15.432973"
       y="7.6541929"
       inkscape:export-filename="logo.png"
       inkscape:export-xdpi="300"
       inkscape:export-ydpi="300" /><path
       style="fill:#000000;stroke-width:0.264583"
       d="m 91.661687,65.45178 c -0.58777,-0.28467 -1.20785,-1.08986 -2.22908,-2.89453 -1.72385,-3.04632 -3.86798,-4.231495 -3.88408,-4.14372 -0.31105,-0.32375 -0.75326,-0.485532 -0.8751,-0.569444 0,0 -0.0864,-0.06285 -0.54123,-0.482734 -0.0933,-0.08611 -0.1897,-0.207973 -0.21793,-0.35707 -0.0142,-0.07525 -0.0227,-0.160206 0.0274,-0.256552 0.8223,-0.50425 1.72791,-0.91682 2.01247,-0.91682 0.65401,0 2.65831,1.51821 3.5428,2.68358 0.37081,0.48856 1.035186,1.522572 1.4764,2.29781 l 0.8022,1.40951 0.30188,-1.6741 c 0.801672,-4.445742 1.92294,-11.4009 2.53054,-15.69701 0.82771,-5.85232 2.23819,-13.37793 2.59104,-13.82448 0.14373,-0.1819 0.59935,-0.33073 1.01249,-0.33073 0.64598,0 0.78709,0.13892 1.00782,0.99219 0.47598,1.84001 0.985483,6.27851 1.792953,15.61926 0.179,2.07067 0.61661,2.88815 0.61661,1.15186 0,-0.96561 1.43213,-10.1403 1.75063,-11.21515 0.20928,-0.70624 1.00114,-1.03396 1.54226,-0.63828 0.46086,0.33698 1.83461,6.52998 3.06152,13.80158 0.29464,1.74625 0.60012,3.38123 0.67885,3.63329 0.13105,0.41956 0.51638,0.44419 4.55981,0.29153 4.88263,-0.18434 5.20195,-0.0944 5.02865,1.41699 -0.0849,0.74042 -0.0955,0.74426 -2.46651,0.89757 -1.30969,0.0847 -3.51234,0.14421 -4.89479,0.13229 -2.1533,-0.0186 -2.63178,-0.10601 -3.3385,-0.61012 -1.11129,-0.7927 -1.31172,-1.37298 -2.17282,-6.29072 -0.8353,-4.77044 -0.81688,-4.78244 -1.62448,1.05834 -1.29676,9.37862 -1.3657,9.65729 -2.3892,9.65729 -0.25541,0 -0.59465,-0.15697 -0.75388,-0.34883 -0.37889,-0.45654 -0.874363,-3.88649 -1.926543,-13.33658 -0.47351,-4.25275 -0.90534,-7.68787 -0.95962,-7.63358 -0.0543,0.0543 -0.56569,3.29569 -1.13645,7.20312 -0.57076,3.90742 -1.51548,9.69564 -2.09938,12.86269 -0.5839,3.16705 -1.06163,5.812 -1.06163,5.87767 0,0.0657 -0.21394,0.23388 -0.47541,0.373824 -0.33011,0.17667 -0.72426,0.13391 -1.28969,-0.139944 z m -0.63868,-13.70925 c -4.980326,-3.735245 -10.49769,-7.9663 -11.80791,-14.01674 -0.54461,-2.51497 -0.53675,-6.95222 0.0164,-9.23132 1.67924,-6.91933 7.1349,-12.4436 14.19534,-14.37385 2.43655,-0.66612 8.455723,-0.65382 10.847913,0.0222 13.02821,3.68158 18.7873,18.09327 11.86778,29.69824 -1.09162,1.8308 -3.85121,4.68711 -5.78958,5.99248 l -1.44749,0.97479 -0.19794,-0.76389 c -0.10887,-0.420141 -0.36737,-2.21844 -0.57442,-3.99623 l -0.37647,-3.23235 1.17796,-1.75641 c 3.63091,-5.413914 3.05024,-12.47893 -1.38437,-16.84325 -4.80858,-4.73236 -13.089613,-4.57682 -17.581943,0.33024 -5.19096,5.67019 -4.26486,14.81432 1.94919,19.24601 1.37859,0.98318 1.48396,1.13349 1.48386,2.11667 -1.3e-4,1.17324 -0.62626,6.16471 -0.79409,6.33037 -0.0586,0.0578 -0.882096,0.02964 -1.58419,-0.49693 z"
       id="path865"
       sodipodi:nodetypes="sscssscssscssssssssssssssssssssssssssssscscsscsscssssssss"
       inkscape:export-filename="logo_mini.png"
       inkscape:export-xdpi="200"
       inkscape:export-ydpi="200" /><text
       xml:space="preserve"
       transform="scale(0.26458333)"
       id="text1015"
       style="font-size:40px;line-height:normal;font-family:sans-serif;-inkscape-font-specification:sans-serif;text-decoration-color:#000000;white-space:pre;shape-inside:url(#rect1017);display:inline;fill:#000000;fill-opacity:1;stroke:#000000;stroke-width:1.88976;stroke-opacity:1;-inkscape-stroke:none;paint-order:markers fill stroke;stop-color:#000000" /><text
       xml:space="preserve"
       style="font-size:2.82222px;line-height:normal;font-family:sans-serif;-inkscape-font-specification:sans-serif;text-decoration-color:#000000;fill:#000000;fill-opacity:1;stroke:none;stroke-width:0.25;stroke-dasharray:none;stroke-opacity:1;paint-order:markers fill stroke;stop-color:#000000"
       x="106.71126"
       y="59.909363"
       id="text1023"><tspan
         sodipodi:role="line"
         style="font-size:2.82222px;fill:#000000;stroke:#000000;stroke-width:0.25;stroke-linecap:round;stroke-linejoin:round;stroke-dasharray:none;stroke-opacity:1"
         x="106.71126"
         y="59.909363"
         id="tspan1075">SSPARQ</tspan></text></g></svg>
